<svg width="204" height="114" viewBox="0 0 204 114" fill="none" xmlns="http://www.w3.org/2000/svg">
<path d="M18.7105 86.3797V99.6917H15.5112V86.7028C15.5112 82.5737 13.7318 80.563 10.0652 80.563C5.89533 80.563 3.20828 83.2739 3.20828 87.4748V99.6917H0V52.9786H3.1993V80.572C4.95172 78.5882 7.31524 77.5559 10.1191 77.5559C15.4123 77.5559 18.7015 80.94 18.7015 86.3887L18.7105 86.3797ZM43.5679 88.8751C43.5679 95.2304 38.6701 100.203 32.4243 100.203C26.1785 100.203 21.2807 95.2304 21.2807 88.8751C21.2807 82.5198 26.1785 77.5559 32.4243 77.5559C38.6701 77.5559 43.5679 82.5288 43.5679 88.8751ZM40.2967 88.8751C40.2967 84.0907 36.9087 80.4912 32.4153 80.4912C27.9219 80.4912 24.5339 84.0997 24.5339 88.8751C24.5339 93.6506 27.9219 97.2591 32.4153 97.2591C36.9087 97.2591 40.2967 93.6506 40.2967 88.8751ZM46.6414 99.6917H49.8407V35.4657H46.6414V99.6917ZM77.2055 77.5559C74.1589 77.5559 71.8044 78.7228 70.1868 81.0298C68.7579 78.8395 66.3494 77.5559 63.5545 77.5559C61.2719 77.5559 59.2319 78.3907 57.8479 79.809V78.0586H54.6486V99.6827H57.8479V86.6939C57.8479 82.7891 59.9239 80.554 63.5545 80.554C67.4189 80.554 68.2367 83.4803 68.2367 85.9309V99.6827H71.4359V86.5054C71.4359 82.7263 73.5389 80.554 77.2055 80.554C80.1801 80.554 81.8247 82.4391 81.8247 85.868V99.6827H85.024V85.5449C85.024 80.0154 81.0967 77.5469 77.2055 77.5469V77.5559ZM109.189 89.8984H90.8923C91.3237 94.3328 94.4781 97.2591 98.9175 97.2591C101.973 97.2591 104.013 96.3524 105.73 94.234L106.152 93.7044L108.372 95.7151L108.003 96.1819C105.909 98.8479 102.854 100.203 98.9175 100.203C92.4471 100.203 87.5762 95.3291 87.5762 88.8751C87.5762 82.4211 92.3572 77.5469 98.4682 77.5469C104.579 77.5469 109.028 82.2505 109.171 89.2431L109.189 89.8895V89.8984ZM105.81 86.9542C105.334 84.2613 103.734 80.4912 98.4772 80.4912C94.6668 80.4912 91.7461 83.0584 91.0182 86.9542H105.81ZM118.859 86.6669C115.831 85.6616 114.492 85.132 114.492 83.1751C114.492 81.5145 115.84 80.4822 118.014 80.4822C119.983 80.4822 121.295 81.2362 122.265 82.9238L122.571 83.4534L125.276 82.0351L124.979 81.4696C123.604 78.8665 121.259 77.5469 118.014 77.5469C114.087 77.5469 111.346 79.8628 111.346 83.1751C111.346 87.1337 114.231 88.4173 118.005 89.674C121.78 90.9038 123.46 91.8104 123.46 93.9288C123.46 96.3883 121.142 97.2591 118.976 97.2591C116.037 97.2591 113.854 95.9395 112.838 93.5518L112.586 92.9594L109.738 94.1712L110.007 94.7636C111.598 98.3183 114.698 100.194 118.985 100.194C123.658 100.194 126.669 97.7079 126.669 93.857C126.669 89.2162 122.526 87.8608 118.859 86.658V86.6669ZM146.79 78.0586H149.989V103.067C149.989 109.637 145.918 113.883 139.61 113.883C134.649 113.883 130.695 111.469 129.023 107.411L128.772 106.801L131.701 105.715L131.935 106.289C133.076 109.081 136.015 110.822 139.61 110.822C144.103 110.822 146.79 107.878 146.79 102.95V96.7294C144.912 98.9915 142.252 100.212 139.097 100.212C132.78 100.212 128.017 95.3381 128.017 88.8841C128.017 82.4301 132.78 77.5559 139.097 77.5559C142.243 77.5559 144.912 78.7767 146.79 81.0298V78.0676V78.0586ZM146.916 88.8751C146.916 83.974 143.699 80.554 139.097 80.554C134.496 80.554 131.279 83.974 131.279 88.8751C131.279 93.7762 134.496 97.1962 139.097 97.1962C143.699 97.1962 146.916 93.7762 146.916 88.8751ZM154.797 99.6917H158.006V0H154.797V99.6917ZM182.683 89.8984H164.386C164.818 94.3328 167.972 97.2591 172.411 97.2591C175.467 97.2591 177.507 96.3524 179.223 94.234L179.646 93.7044L181.866 95.7151L181.497 96.1819C179.403 98.8479 176.348 100.203 172.411 100.203C165.95 100.203 161.07 95.3291 161.07 88.8751C161.07 82.4211 165.851 77.5469 171.962 77.5469C178.073 77.5469 182.522 82.2505 182.665 89.2431V89.8895L182.683 89.8984ZM179.313 86.9542C178.837 84.2613 177.237 80.4912 171.98 80.4912C168.17 80.4912 165.249 83.0584 164.521 86.9542H179.313ZM195.75 77.5469C192.982 77.5469 190.484 78.6331 188.83 80.4822V78.0586H185.631V99.6827H188.83V87.4658C188.83 83.2649 191.517 80.554 195.687 80.554C199.354 80.554 201.142 82.5647 201.142 86.6939V99.6827H204.342V86.3707C204.342 80.9221 201.052 77.5379 195.759 77.5379L195.75 77.5469Z" fill="#0099CC"/>
</svg>
